<svg width="33" height="34" viewBox="0 0 33 34" fill="none" xmlns="http://www.w3.org/2000/svg">
<g clip-path="url(#clip0_4_339)">
<path d="M31.4947 25.449C31.4617 25.415 31.4286 25.381 31.3955 25.347C31.3128 25.262 31.2383 25.1855 31.1556 25.109C30.7669 24.7605 30.3286 24.48 29.8406 24.2845C30.4774 23.783 30.8827 23.001 30.8827 22.117C30.8827 20.6125 29.6917 19.3885 28.2278 19.3885C26.7639 19.3885 25.5729 20.6125 25.5729 22.117C25.5729 23.001 25.9865 23.783 26.615 24.2845C25.8045 24.6075 25.118 25.16 24.6135 25.874C23.4639 24.4375 21.9586 23.2985 20.2466 22.61C21.7519 21.42 22.7361 19.55 22.7361 17.4505C22.7278 13.8635 19.8827 10.948 16.3925 10.948C12.9105 10.948 10.0654 13.872 10.0654 17.4505C10.0654 19.55 11.0496 21.42 12.5549 22.61C10.8015 23.3155 9.27143 24.48 8.11353 25.9675C7.60902 25.228 6.90601 24.65 6.07895 24.31C6.71579 23.8085 7.12105 23.0265 7.12105 22.1425C7.12105 20.638 5.93008 19.414 4.46617 19.414C3.00226 19.414 1.81128 20.638 1.81128 22.1425C1.81128 23.0265 2.22481 23.8085 2.85338 24.31C1.18271 24.973 0 26.639 0 28.5855C0 28.8575 0.215038 29.087 0.48797 29.087C0.496241 29.087 0.504511 29.087 0.504511 29.087C0.554135 29.104 0.61203 29.1125 0.669925 29.1125H6.39323C5.99624 30.26 5.77293 31.484 5.77293 32.776C5.77293 33.439 6.29399 33.966 6.93083 33.966C6.96391 33.966 7.00526 33.9575 7.03835 33.9575C7.17068 33.9915 7.30301 34.017 7.45188 34.017H25.4241C25.5564 34.017 25.6887 33.9915 25.8128 33.9575C25.8211 33.9575 25.8459 33.9575 25.8624 33.9575C26.5075 33.9575 27.0203 33.422 27.0203 32.7675C27.0203 31.4755 26.7887 30.2345 26.3835 29.087H28.3684H30.1301H31.9992C32.0571 29.087 32.115 29.0785 32.1729 29.0615C32.1895 29.0615 32.206 29.07 32.2226 29.07C32.4872 29.07 32.7105 28.849 32.7105 28.5685C32.7023 27.353 32.2391 26.265 31.4947 25.449ZM12.3729 17.425C12.3729 15.1555 14.1677 13.3025 16.3842 13.3025C18.6008 13.3025 20.3955 15.147 20.3955 17.425C20.3955 19.703 18.6008 21.5475 16.3842 21.5475C14.1759 21.556 12.3729 19.703 12.3729 17.425ZM8.1797 31.62C8.72556 27.4635 12.1992 24.225 16.409 24.225C20.6023 24.2335 24.0842 27.455 24.6301 31.62H8.1797Z" fill="#504F4F"/>
<path d="M32.3384 13.906L29.7249 11.458V3.21304C29.7249 2.54154 29.1955 1.99754 28.5422 1.99754H22.058C21.4211 1.99754 20.8918 2.52454 20.8752 3.17904L18.0384 0.510045C17.6662 0.178545 17.2279 0.00854492 16.7565 0.00854492C16.2933 0.00854492 15.8384 0.187045 15.491 0.518545L1.18277 13.9145C0.60382 14.4585 0.413595 15.2915 0.694798 16.0395C0.84367 16.439 1.10833 16.7535 1.43916 16.966L3.70532 14.841H3.69705L16.7565 2.61804L21.2557 6.82554C21.4707 7.02954 21.7602 7.14004 22.0497 7.14004C22.2068 7.14004 22.364 7.10604 22.5211 7.03804C22.9595 6.84254 23.2324 6.40054 23.2324 5.92454V4.42004H27.3595V12.002C27.3595 12.3505 27.5001 12.6735 27.7399 12.903L29.8158 14.8495H27.8392C27.1858 14.8495 26.6565 15.3935 26.6565 16.065V17.2805H29.0301H31.073C31.8504 17.2805 32.5369 16.796 32.8264 16.048C33.1076 15.283 32.9174 14.45 32.3384 13.906Z" fill="#504F4F"/>
</g>
<defs>
<clipPath id="clip0_4_339">
<rect width="33" height="34" fill="white"/>
</clipPath>
</defs>
</svg>
